<?xml version="1.0" encoding="UTF-8"?><svg id="uuid-852f0573-6a83-42cb-a84b-522d1b66e317" xmlns="http://www.w3.org/2000/svg" width="86.05" height="86.05" viewBox="0 0 86.05 86.05"><defs><style>.uuid-54e346ed-fafc-4d59-a578-46a6e6999bd3{fill:#231f20;}</style></defs><g id="uuid-65d6f956-963f-491c-971a-a36977f476bb"><path class="uuid-54e346ed-fafc-4d59-a578-46a6e6999bd3" d="M80.69,0H5.36C2.41,0,0,2.41,0,5.36v75.33c0,2.96,2.41,5.36,5.36,5.36h75.32c2.96,0,5.36-2.41,5.36-5.36V5.36c0-2.96-2.41-5.36-5.36-5.36ZM84.05,80.69c0,1.85-1.51,3.36-3.36,3.36H5.36c-1.85,0-3.36-1.51-3.36-3.36V5.36c0-1.85,1.51-3.36,3.36-3.36h75.32c1.85,0,3.36,1.51,3.36,3.36v75.33Z"/><path class="uuid-54e346ed-fafc-4d59-a578-46a6e6999bd3" d="M69.98,17.02c.55,0,1-.45,1-1s-.45-1-1-1H16.44l-6.13-6.13c-.39-.39-1.02-.39-1.41,0s-.39,1.02,0,1.41l6.43,6.43c.19.19.44.29.71.29h26v53c0,.55.45,1,1,1s1-.45,1-1V17.02h25.95Z"/><path class="uuid-54e346ed-fafc-4d59-a578-46a6e6999bd3" d="M70.98,43.02v-20.18c0-.55-.45-1-1-1h-20.18c-.55,0-1,.45-1,1v47.18c0,.55.45,1,1,1s1-.45,1-1v-26h19.18c.55,0,1-.45,1-1ZM68.98,42.02h-18.18v-18.18h18.18v18.18Z"/><path class="uuid-54e346ed-fafc-4d59-a578-46a6e6999bd3" d="M71.02,69.61v-19.85c0-.55-.45-1-1-1h-13.54c-.55,0-1,.45-1,1v20.27c0,.55.45,1,1,1h13.12l6.13,6.14c.2.2.45.29.71.29s.51-.1.71-.29c.39-.39.39-1.02,0-1.41l-6.13-6.14ZM69.02,69.02h-11.54v-18.27h11.54v18.27Z"/></g></svg>